<svg version="1.1" xmlns="http://www.w3.org/2000/svg" xmlns:xlink="http://www.w3.org/1999/xlink" width="47.98611" height="47.98611"><defs><linearGradient x1="7.34585" y1="17.48981" x2="67.50892" y2="54.90021" gradientUnits="userSpaceOnUse" id="color-1"><stop offset="0" stop-color="#000000" stop-opacity="0.27"></stop><stop offset="1" stop-color="#000000" stop-opacity="0"></stop></linearGradient><filter id="dropshadow-base"><feColorMatrix type="matrix" values="0 0 0 0 0  0 0 0 0 0  0 0 0 0 0  0 0 0 .8 0"></feColorMatrix> <feOffset dx="0" dy="1"></feOffset> <feGaussianBlur stdDeviation="1"></feGaussianBlur> <feComposite in="SourceGraphic"></feComposite></filter><filter id="dropshadow-banner" x="-10%" y="-10%" width="120%" height="130%"><feColorMatrix type="matrix" values="0 0 0 0 0  0 0 0 0 0  0 0 0 0 0  0 0 0 .4 0"></feColorMatrix> <feOffset dx="0" dy="1"></feOffset> <feGaussianBlur stdDeviation="0.5"></feGaussianBlur> <feComposite in="SourceGraphic"></feComposite></filter></defs><g transform="translate(-0.00694,-0.00694)"><g fill="none" fill-rule="nonzero" stroke="none" stroke-width="none" stroke-linecap="butt" stroke-linejoin="miter" stroke-miterlimit="10" stroke-dasharray="" stroke-dashoffset="0" font-family="none" font-weight="none" font-size="none" text-anchor="none" style="mix-blend-mode: normal"><path d="M4,40c-1.10457,0 -2,-0.89543 -2,-2v-28c0,-1.10457 0.89543,-2 2,-2h40c1.10457,0 2,0.89543 2,2v28c0,1.10457 -0.89543,2 -2,2z" id="base 1 13" fill="#ff0f00" stroke-width="1"></path><path d="M7.41979,30.16622c-0.00515,-0.00515 -0.01003,-0.01036 -0.01465,-0.01564c-0.03953,-0.05271 -0.05929,-0.11531 -0.05929,-0.18779v-12.04798c0,-0.07248 0.01976,-0.13508 0.05929,-0.18779c0.04613,-0.05271 0.11861,-0.09553 0.21743,-0.12848c0.09884,-0.03295 0.23061,-0.05929 0.39535,-0.07908c0.17132,-0.01976 0.38216,-0.02966 0.63254,-0.02966c0.25698,0 0.46782,0.00989 0.63254,0.02966c0.16472,0.01976 0.2965,0.04613 0.39535,0.07908c0.08237,0.02746 0.14414,0.06177 0.18532,0.10295l2.357,2.357l1.47038,-2.1338c0.04613,-0.08566 0.10213,-0.15484 0.16803,-0.20756c0.06589,-0.05929 0.15155,-0.10542 0.25698,-0.13837c0.10542,-0.03295 0.2405,-0.056 0.40522,-0.06919c0.16472,-0.01318 0.37558,-0.01976 0.63254,-0.01976c0.26356,0 0.481,0.00989 0.6523,0.02966c0.17132,0.01976 0.3064,0.04942 0.40522,0.08895c0.0892,0.02788 0.15482,0.06282 0.19684,0.10485l2.00721,2.00721v-1.80566c0,-0.07248 0.01976,-0.13508 0.05929,-0.18779c0.04613,-0.05271 0.11861,-0.09553 0.21743,-0.12848c0.09884,-0.03295 0.23061,-0.05929 0.39535,-0.07908c0.17132,-0.01976 0.38216,-0.02966 0.63254,-0.02966c0.25698,0 0.46782,0.00989 0.63254,0.02966c0.16472,0.01976 0.2965,0.04613 0.39535,0.07908c0.08237,0.02746 0.14414,0.06177 0.18532,0.10295l2.357,2.357l1.47038,-2.1338c0.04613,-0.08566 0.10213,-0.15484 0.16803,-0.20756c0.06589,-0.05929 0.15155,-0.10542 0.25698,-0.13837c0.10542,-0.03295 0.2405,-0.056 0.40522,-0.06919c0.16472,-0.01318 0.37558,-0.01976 0.63254,-0.01976c0.26356,0 0.481,0.00989 0.6523,0.02966c0.17132,0.01976 0.3064,0.04942 0.40522,0.08895c0.0892,0.02788 0.15482,0.06282 0.19684,0.10485l3.02114,3.02114l1.85866,-2.69721c0.04613,-0.08566 0.10215,-0.15481 0.16803,-0.20752c0.06589,-0.05929 0.15152,-0.10546 0.25694,-0.13841c0.10542,-0.03295 0.24054,-0.05602 0.40527,-0.0692c0.16472,-0.01318 0.37551,-0.01978 0.63249,-0.01978c0.26356,0 0.48104,0.00994 0.65234,0.02971l0.00002,0.00002c0.17131,0.01976 0.30633,0.04937 0.40516,0.08889l0.27527,0.27527c-0.00533,-0.05358 -0.02463,-0.10254 -0.05782,-0.14681c-0.00608,-0.0081 -0.01294,-0.01598 -0.02057,-0.02361l4.41538,4.41538l-2.55548,-3.3473c-0.16472,-0.25698 -0.27676,-0.44477 -0.33607,-0.56337c-0.05929,-0.11861 -0.08899,-0.2339 -0.08899,-0.34591c0,-0.06589 0.01982,-0.12526 0.05935,-0.17797c0.03953,-0.05271 0.11202,-0.09551 0.21745,-0.12846c0.09884,-0.03953 0.23387,-0.06913 0.40518,-0.0889c0.17132,-0.01976 0.38878,-0.02971 0.65234,-0.02971l0,-0.00002c0.25698,0 0.46775,0.0066 0.63249,0.01978l1.75034,1.75034l-0.92011,-1.33522l6.69352,6.69352v13.31208c0,1.10457 -0.89543,2 -2,2h-26.74643zM39.13846,17.78688c0.0165,0.0132 0.03238,0.02743 0.04764,0.04269l6.8139,6.8139v0.00495z" fill="url(#color-1)" stroke-width="1"></path><path d="M16.68574,29.95292c0,0.07248 -0.01977,0.13837 -0.0593,0.19767c-0.03295,0.05271 -0.10213,0.09883 -0.20755,0.13837c-0.09884,0.03295 -0.2372,0.0593 -0.41511,0.07907c-0.1779,0.01977 -0.40193,0.02965 -0.67208,0.02965c-0.42829,0 -0.73797,-0.01647 -0.92905,-0.04942c-0.18449,-0.03295 -0.31957,-0.08236 -0.40522,-0.14825c-0.07907,-0.06589 -0.14166,-0.14496 -0.18779,-0.2372l-3.86445,-6.06847v6.06847c0,0.07248 -0.01977,0.13507 -0.0593,0.18779c-0.03953,0.05271 -0.10872,0.09883 -0.20755,0.13837c-0.09883,0.03295 -0.23061,0.0593 -0.39534,0.07907c-0.16473,0.01977 -0.37557,0.02965 -0.63254,0.02965c-0.25038,0 -0.46123,-0.00988 -0.63254,-0.02965c-0.16473,-0.01977 -0.29651,-0.04612 -0.39534,-0.07907c-0.09884,-0.03953 -0.17131,-0.08566 -0.21744,-0.13837c-0.03953,-0.05271 -0.0593,-0.11531 -0.0593,-0.18779v-12.04799c0,-0.07248 0.01977,-0.13507 0.0593,-0.18779c0.04612,-0.05271 0.1186,-0.09554 0.21744,-0.12849c0.09883,-0.03295 0.23061,-0.0593 0.39534,-0.07907c0.17131,-0.01977 0.38216,-0.02965 0.63254,-0.02965c0.25697,0 0.46782,0.00988 0.63254,0.02965c0.16473,0.01977 0.29651,0.04612 0.39534,0.07907c0.09884,0.03295 0.16802,0.07577 0.20755,0.12849c0.03953,0.05271 0.0593,0.11531 0.0593,0.18779v5.44581l3.74585,-5.43593c0.04612,-0.08566 0.10213,-0.15484 0.16802,-0.20755c0.06589,-0.0593 0.15155,-0.10542 0.25697,-0.13837c0.10542,-0.03295 0.2405,-0.05601 0.40522,-0.06918c0.16472,-0.01318 0.37557,-0.01977 0.63254,-0.01977c0.26356,0 0.481,0.00988 0.65231,0.02965c0.17131,0.01977 0.30639,0.04942 0.40522,0.08895c0.10542,0.03295 0.1779,0.07577 0.21744,0.12849c0.03953,0.05271 0.0593,0.11201 0.0593,0.1779c0,0.11201 -0.02965,0.22732 -0.08895,0.34592c-0.0593,0.1186 -0.17131,0.30639 -0.33604,0.56336l-3.50864,4.59583l3.82492,5.78185c0.14496,0.27015 0.23061,0.45135 0.25697,0.54359c0.03295,0.08566 0.04942,0.15484 0.04942,0.20755zM27.75526,29.95292c0,0.07248 -0.01977,0.13837 -0.0593,0.19767c-0.03295,0.05271 -0.10213,0.09883 -0.20755,0.13837c-0.09884,0.03295 -0.2372,0.0593 -0.41511,0.07907c-0.1779,0.01977 -0.40193,0.02965 -0.67208,0.02965c-0.42829,0 -0.73797,-0.01647 -0.92905,-0.04942c-0.18449,-0.03295 -0.31957,-0.08236 -0.40522,-0.14825c-0.07907,-0.06589 -0.14166,-0.14496 -0.18779,-0.2372l-3.86445,-6.06847v6.06847c0,0.07248 -0.01977,0.13507 -0.0593,0.18779c-0.03953,0.05271 -0.10872,0.09883 -0.20755,0.13837c-0.09884,0.03295 -0.23062,0.0593 -0.39534,0.07907c-0.16473,0.01977 -0.37557,0.02965 -0.63254,0.02965c-0.25038,0 -0.46123,-0.00988 -0.63254,-0.02965c-0.16473,-0.01977 -0.29651,-0.04612 -0.39534,-0.07907c-0.09884,-0.03953 -0.17131,-0.08566 -0.21744,-0.13837c-0.03953,-0.05271 -0.0593,-0.11531 -0.0593,-0.18779v-12.04799c0,-0.07248 0.01977,-0.13507 0.0593,-0.18779c0.04612,-0.05271 0.1186,-0.09554 0.21744,-0.12849c0.09883,-0.03295 0.23061,-0.0593 0.39534,-0.07907c0.17131,-0.01977 0.38216,-0.02965 0.63254,-0.02965c0.25697,0 0.46782,0.00988 0.63254,0.02965c0.16473,0.01977 0.29651,0.04612 0.39534,0.07907c0.09883,0.03295 0.16802,0.07577 0.20755,0.12849c0.03953,0.05271 0.0593,0.11531 0.0593,0.18779v5.44581l3.74585,-5.43593c0.04612,-0.08566 0.10213,-0.15484 0.16802,-0.20755c0.06589,-0.0593 0.15155,-0.10542 0.25697,-0.13837c0.10542,-0.03295 0.2405,-0.05601 0.40522,-0.06918c0.16472,-0.01318 0.37557,-0.01977 0.63254,-0.01977c0.26356,0 0.481,0.00988 0.65231,0.02965c0.17131,0.01977 0.30639,0.04942 0.40522,0.08895c0.10542,0.03295 0.1779,0.07577 0.21744,0.12849c0.03953,0.05271 0.0593,0.11201 0.0593,0.1779c0,0.11201 -0.02965,0.22732 -0.08895,0.34592c-0.0593,0.1186 -0.17131,0.30639 -0.33604,0.56336l-3.50864,4.59583l3.82492,5.78185c0.14496,0.27015 0.23061,0.45135 0.25697,0.54359c0.03295,0.08566 0.04942,0.15484 0.04942,0.20755zM34.47254,17.63201c0.17131,0.01977 0.30635,0.04937 0.40518,0.0889c0.10542,0.03295 0.17792,0.07575 0.21745,0.12847c0.03953,0.05271 0.05935,0.11208 0.05935,0.17797c0,0.11201 -0.02968,0.22731 -0.08898,0.34592c-0.0593,0.1186 -0.17134,0.30639 -0.33607,0.56336l-3.50865,4.59582l3.82494,5.78181c0.14496,0.27015 0.23066,0.45134 0.25702,0.54358c0.03295,0.08566 0.04942,0.15489 0.04942,0.2076c0,0.07248 -0.01982,0.13837 -0.05935,0.19767c-0.03295,0.05271 -0.10209,0.09878 -0.20752,0.13832c-0.09884,0.03295 -0.23721,0.05937 -0.41512,0.07913c-0.1779,0.01977 -0.4019,0.02963 -0.67205,0.02963c-0.42828,0 -0.73798,-0.01647 -0.92906,-0.04942c-0.18449,-0.03295 -0.31961,-0.08236 -0.40526,-0.14825c-0.07907,-0.06589 -0.14161,-0.14499 -0.18773,-0.23723l-3.86127,-6.06341c0,0 -0.06487,-0.12411 -0.06957,-0.29276c-0.00427,-0.15325 0.06957,-0.25074 0.06957,-0.25074l3.74266,-5.43118c0.04612,-0.08566 0.10214,-0.1548 0.16803,-0.20752c0.06589,-0.0593 0.15151,-0.10545 0.25693,-0.1384c0.10542,-0.03295 0.24054,-0.05602 0.40526,-0.0692c0.16472,-0.01318 0.37551,-0.01978 0.63248,-0.01978c0.26356,0 0.48103,0.00995 0.65235,0.02972zM37.84375,17.55949c0.25697,0 0.46776,0.00661 0.63248,0.01978c0.16473,0.01318 0.29984,0.03625 0.40526,0.0692c0.10542,0.03295 0.19104,0.0791 0.25693,0.1384c0.06589,0.05271 0.12191,0.12186 0.16803,0.20752l3.74266,5.43118c0,0 0.07384,0.09749 0.06957,0.25074c-0.0047,0.16865 -0.06957,0.29276 -0.06957,0.29276l-3.86128,6.06341c-0.04612,0.09225 -0.10866,0.17134 -0.18773,0.23723c-0.08566,0.06589 -0.22077,0.1153 -0.40526,0.14825c-0.19108,0.03295 -0.50078,0.04942 -0.92906,0.04942c-0.27015,0 -0.49414,-0.00987 -0.67205,-0.02963c-0.1779,-0.01977 -0.31628,-0.04619 -0.41512,-0.07913c-0.10542,-0.03953 -0.17457,-0.0856 -0.20752,-0.13832c-0.03953,-0.0593 -0.05935,-0.12519 -0.05935,-0.19767c0,-0.05271 0.01647,-0.12194 0.04942,-0.2076c0.02636,-0.09225 0.11206,-0.27343 0.25702,-0.54358l3.82493,-5.78181l-3.50865,-4.59582c-0.16473,-0.25697 -0.27676,-0.44476 -0.33607,-0.56336c-0.0593,-0.1186 -0.08898,-0.2339 -0.08898,-0.34592c0,-0.06589 0.01982,-0.12525 0.05935,-0.17797c0.03953,-0.05271 0.11203,-0.09552 0.21745,-0.12847c0.09883,-0.03953 0.23387,-0.06913 0.40518,-0.0889c0.17131,-0.01977 0.38879,-0.02972 0.65235,-0.02972z" id="path94287 1 1" fill="none" stroke-width="0"></path><path d="M16.68574,29.95292c0,0.07248 -0.01977,0.13837 -0.0593,0.19767c-0.03295,0.05271 -0.10213,0.09883 -0.20755,0.13837c-0.09884,0.03295 -0.2372,0.0593 -0.41511,0.07907c-0.1779,0.01977 -0.40193,0.02965 -0.67208,0.02965c-0.42829,0 -0.73797,-0.01647 -0.92905,-0.04942c-0.18449,-0.03295 -0.31957,-0.08236 -0.40522,-0.14825c-0.07907,-0.06589 -0.14166,-0.14496 -0.18779,-0.2372l-3.86445,-6.06847v6.06847c0,0.07248 -0.01977,0.13507 -0.0593,0.18779c-0.03953,0.05271 -0.10872,0.09883 -0.20755,0.13837c-0.09883,0.03295 -0.23061,0.0593 -0.39534,0.07907c-0.16473,0.01977 -0.37557,0.02965 -0.63254,0.02965c-0.25038,0 -0.46123,-0.00988 -0.63254,-0.02965c-0.16473,-0.01977 -0.29651,-0.04612 -0.39534,-0.07907c-0.09884,-0.03953 -0.17131,-0.08566 -0.21744,-0.13837c-0.03953,-0.05271 -0.0593,-0.11531 -0.0593,-0.18779v-12.04799c0,-0.07248 0.01977,-0.13507 0.0593,-0.18779c0.04612,-0.05271 0.1186,-0.09554 0.21744,-0.12849c0.09883,-0.03295 0.23061,-0.0593 0.39534,-0.07907c0.17131,-0.01977 0.38216,-0.02965 0.63254,-0.02965c0.25697,0 0.46782,0.00988 0.63254,0.02965c0.16473,0.01977 0.29651,0.04612 0.39534,0.07907c0.09884,0.03295 0.16802,0.07577 0.20755,0.12849c0.03953,0.05271 0.0593,0.11531 0.0593,0.18779v5.44581l3.74585,-5.43593c0.04612,-0.08566 0.10213,-0.15484 0.16802,-0.20755c0.06589,-0.0593 0.15155,-0.10542 0.25697,-0.13837c0.10542,-0.03295 0.2405,-0.05601 0.40522,-0.06918c0.16472,-0.01318 0.37557,-0.01977 0.63254,-0.01977c0.26356,0 0.481,0.00988 0.65231,0.02965c0.17131,0.01977 0.30639,0.04942 0.40522,0.08895c0.10542,0.03295 0.1779,0.07577 0.21744,0.12849c0.03953,0.05271 0.0593,0.11201 0.0593,0.1779c0,0.11201 -0.02965,0.22732 -0.08895,0.34592c-0.0593,0.1186 -0.17131,0.30639 -0.33604,0.56336l-3.50864,4.59583l3.82492,5.78185c0.14496,0.27015 0.23061,0.45135 0.25697,0.54359c0.03295,0.08566 0.04942,0.15484 0.04942,0.20755zM27.75526,29.95292c0,0.07248 -0.01977,0.13837 -0.0593,0.19767c-0.03295,0.05271 -0.10213,0.09883 -0.20755,0.13837c-0.09884,0.03295 -0.2372,0.0593 -0.41511,0.07907c-0.1779,0.01977 -0.40193,0.02965 -0.67208,0.02965c-0.42829,0 -0.73797,-0.01647 -0.92905,-0.04942c-0.18449,-0.03295 -0.31957,-0.08236 -0.40522,-0.14825c-0.07907,-0.06589 -0.14166,-0.14496 -0.18779,-0.2372l-3.86445,-6.06847v6.06847c0,0.07248 -0.01977,0.13507 -0.0593,0.18779c-0.03953,0.05271 -0.10872,0.09883 -0.20755,0.13837c-0.09884,0.03295 -0.23062,0.0593 -0.39534,0.07907c-0.16473,0.01977 -0.37557,0.02965 -0.63254,0.02965c-0.25038,0 -0.46123,-0.00988 -0.63254,-0.02965c-0.16473,-0.01977 -0.29651,-0.04612 -0.39534,-0.07907c-0.09884,-0.03953 -0.17131,-0.08566 -0.21744,-0.13837c-0.03953,-0.05271 -0.0593,-0.11531 -0.0593,-0.18779v-12.04799c0,-0.07248 0.01977,-0.13507 0.0593,-0.18779c0.04612,-0.05271 0.1186,-0.09554 0.21744,-0.12849c0.09883,-0.03295 0.23061,-0.0593 0.39534,-0.07907c0.17131,-0.01977 0.38216,-0.02965 0.63254,-0.02965c0.25697,0 0.46782,0.00988 0.63254,0.02965c0.16473,0.01977 0.29651,0.04612 0.39534,0.07907c0.09883,0.03295 0.16802,0.07577 0.20755,0.12849c0.03953,0.05271 0.0593,0.11531 0.0593,0.18779v5.44581l3.74585,-5.43593c0.04612,-0.08566 0.10213,-0.15484 0.16802,-0.20755c0.06589,-0.0593 0.15155,-0.10542 0.25697,-0.13837c0.10542,-0.03295 0.2405,-0.05601 0.40522,-0.06918c0.16472,-0.01318 0.37557,-0.01977 0.63254,-0.01977c0.26356,0 0.481,0.00988 0.65231,0.02965c0.17131,0.01977 0.30639,0.04942 0.40522,0.08895c0.10542,0.03295 0.1779,0.07577 0.21744,0.12849c0.03953,0.05271 0.0593,0.11201 0.0593,0.1779c0,0.11201 -0.02965,0.22732 -0.08895,0.34592c-0.0593,0.1186 -0.17131,0.30639 -0.33604,0.56336l-3.50864,4.59583l3.82492,5.78185c0.14496,0.27015 0.23061,0.45135 0.25697,0.54359c0.03295,0.08566 0.04942,0.15484 0.04942,0.20755zM34.47254,17.63201c0.17131,0.01977 0.30635,0.04937 0.40518,0.0889c0.10542,0.03295 0.17792,0.07575 0.21745,0.12847c0.03953,0.05271 0.05935,0.11208 0.05935,0.17797c0,0.11201 -0.02968,0.22731 -0.08898,0.34592c-0.0593,0.1186 -0.17134,0.30639 -0.33607,0.56336l-3.50865,4.59582l3.82494,5.78181c0.14496,0.27015 0.23066,0.45134 0.25702,0.54358c0.03295,0.08566 0.04942,0.15489 0.04942,0.2076c0,0.07248 -0.01982,0.13837 -0.05935,0.19767c-0.03295,0.05271 -0.10209,0.09878 -0.20752,0.13832c-0.09884,0.03295 -0.23721,0.05937 -0.41512,0.07913c-0.1779,0.01977 -0.4019,0.02963 -0.67205,0.02963c-0.42828,0 -0.73798,-0.01647 -0.92906,-0.04942c-0.18449,-0.03295 -0.31961,-0.08236 -0.40526,-0.14825c-0.07907,-0.06589 -0.14161,-0.14499 -0.18773,-0.23723l-3.86127,-6.06341c0,0 -0.06487,-0.12411 -0.06957,-0.29276c-0.00427,-0.15325 0.06957,-0.25074 0.06957,-0.25074l3.74266,-5.43118c0.04612,-0.08566 0.10214,-0.1548 0.16803,-0.20752c0.06589,-0.0593 0.15151,-0.10545 0.25693,-0.1384c0.10542,-0.03295 0.24054,-0.05602 0.40526,-0.0692c0.16472,-0.01318 0.37551,-0.01978 0.63248,-0.01978c0.26356,0 0.48103,0.00995 0.65235,0.02972zM37.84375,17.55949c0.25697,0 0.46776,0.00661 0.63248,0.01978c0.16473,0.01318 0.29984,0.03625 0.40526,0.0692c0.10542,0.03295 0.19104,0.0791 0.25693,0.1384c0.06589,0.05271 0.12191,0.12186 0.16803,0.20752l3.74266,5.43118c0,0 0.07384,0.09749 0.06957,0.25074c-0.0047,0.16865 -0.06957,0.29276 -0.06957,0.29276l-3.86128,6.06341c-0.04612,0.09225 -0.10866,0.17134 -0.18773,0.23723c-0.08566,0.06589 -0.22077,0.1153 -0.40526,0.14825c-0.19108,0.03295 -0.50078,0.04942 -0.92906,0.04942c-0.27015,0 -0.49414,-0.00987 -0.67205,-0.02963c-0.1779,-0.01977 -0.31628,-0.04619 -0.41512,-0.07913c-0.10542,-0.03953 -0.17457,-0.0856 -0.20752,-0.13832c-0.03953,-0.0593 -0.05935,-0.12519 -0.05935,-0.19767c0,-0.05271 0.01647,-0.12194 0.04942,-0.2076c0.02636,-0.09225 0.11206,-0.27343 0.25702,-0.54358l3.82493,-5.78181l-3.50865,-4.59582c-0.16473,-0.25697 -0.27676,-0.44476 -0.33607,-0.56336c-0.0593,-0.1186 -0.08898,-0.2339 -0.08898,-0.34592c0,-0.06589 0.01982,-0.12525 0.05935,-0.17797c0.03953,-0.05271 0.11203,-0.09552 0.21745,-0.12847c0.09883,-0.03953 0.23387,-0.06913 0.40518,-0.0889c0.17131,-0.01977 0.38879,-0.02972 0.65235,-0.02972z" id="path94287 1 1" fill="#ffffff" stroke-width="0"></path><path d="M2,24c0,-12.15026 9.84974,-22 22,-22c12.15026,0 22,9.84974 22,22c0,12.15026 -9.84974,22 -22,22c-12.15026,0 -22,-9.84974 -22,-22z" id="base 1 9 1" fill="none" stroke-width="1"></path><path d="M2,24c0,-12.15026 9.84974,-22 22,-22c12.15026,0 22,9.84974 22,22c0,12.15026 -9.84974,22 -22,22c-12.15026,0 -22,-9.84974 -22,-22z" id="base 1 5 1" fill="none" stroke-width="1"></path><path d="M2,24c0,-12.15026 9.84974,-22 22,-22c12.15026,0 22,9.84974 22,22c0,12.15026 -9.84974,22 -22,22c-12.15026,0 -22,-9.84974 -22,-22z" id="base 1 1 1" fill="none" stroke-width="1"></path><g id="svg2 1 1" fill="#000000" stroke-width="1" font-family="Sans" font-weight="normal" font-size="477.61" text-anchor="start"><g id="layer1 1 1"><g id="g94278 1 1"><g id="text94282 1 1"></g></g></g></g><rect x="2" y="2" width="44" height="22" fill="none" stroke-width="1"></rect><path d="M2,24v-22h44v22z" fill="none" stroke-width="1"></path><path d="M2,24v-22h44v22z" fill="none" stroke-width="1"></path><path d="M2,24v-22h44v22z" fill="none" stroke-width="1"></path><path d="M2,24v-22h44v22z" fill="none" stroke-width="1"></path><g id="svg2 2 1" fill="#000000" stroke-width="1" font-family="Sans" font-weight="normal" font-size="477.61" text-anchor="start"><g id="layer1 1 1"><g id="g94278 1 1"><g id="text94282 1 1"></g></g></g></g><rect x="2" y="2" width="44" height="22" fill="none" stroke-width="1"></rect><path d="M2,24v-22h44v22z" fill="none" stroke-width="1"></path><path d="M2,24v-22h44v22z" fill="none" stroke-width="1"></path><path d="M2,24v-22h44v22z" fill="none" stroke-width="1"></path><path d="M2,24v-22h44v22z" fill="none" stroke-width="1"></path><g id="svg2 3 1" fill="#ffffff" stroke-width="1" font-family="Sans" font-weight="normal" font-size="477.61" text-anchor="start"><g id="layer1 1 1"><g id="g94278 1 1"><g id="text94282 1 1"></g></g></g></g><rect x="2" y="2" width="44" height="22" fill="none" stroke-width="1"></rect><path d="M2,24v-22h44v22z" fill="none" stroke-width="1"></path><path d="M2,24v-22h44v22z" fill="none" stroke-width="1"></path><path d="M2,24v-22h44v22z" fill="none" stroke-width="1"></path><path d="M2,24v-22h44v22z" fill="none" stroke-width="1"></path></g></g></svg>